# xmcd
#
# Track frame offsets:
#	543
#	16010
#	29030
#	56167
#	73285
#	89667
#	107000
#	118091
#	137807
#	153296
#	184560
#	199283
#	213170
#	250563
#	262418
#	280190
#	298905
#
# Disc length: 4497 seconds
#
# Revision: 1
# Processed by: cddbd v1.5.2PL0 Copyright (c) Steve Scherf et al.
# Submitted via: audiograbber 1.81.03
#
DISCID=11118a11
DTITLE=Stony Plain Records - 30 Years of Stony Plain [CD2]
DYEAR=2006
DGENRE=Blues
TTITLE0=Duke`Robillard - Alimony Blues
TTITLE1=Rosco`Gordon - Memphis Tennessee
TTITLE2=Maria`Muldaur]p[Taj`Mahal - Ain't What You Used to Have
TTITLE3=Long John Baldry - Good Morning Blues
TTITLE4=Ronnie`Earl]p[Kim`Wilson - My Buddy Buddy Friends
TTITLE5=Robert`Nighthawk - Kansas City Blues
TTITLE6=Jay`McShann - Kansas City
TTITLE7=Jimmy`Witherspoon - Low Down Dirty Shame
TTITLE8=Downchild Blues Band - When I Say Jump
TTITLE9=Ronnie`Earl]p[Duke`Robillard]p[Jimmy`McGriff - Don't Take Everybody for
TTITLE9=Your Friend
TTITLE10=Big Dave`McLean - She's Got the Stuff
TTITLE11=King Biscuit Boy - Ain't Gonna Do It
TTITLE12=Billy Boy`Arnold - Woman Stealer
TTITLE13=Sonny`Rhodes - Big Bag O Blues
TTITLE14=Ellen`McIlwaine - Down So Low
TTITLE15=Doug`James - Extra Axle
TTITLE16=Jeff`Healy And The Jazz Wizards - Sweet Georgia Brown
EXTD=Canada's Roots, Rock, Folk, Country and Blues Label
EXTT0=
EXTT1=
EXTT2=
EXTT3=
EXTT4=
EXTT5=
EXTT6=
EXTT7=
EXTT8=
EXTT9=
EXTT10=
EXTT11=
EXTT12=
EXTT13=
EXTT14=
EXTT15=
EXTT16=
PLAYORDER=
